<?xml version="1.0" encoding="UTF-8"?>
<svg preserveAspectRatio="xMidYMid slice" width="400px" height="286px" xmlns="http://www.w3.org/2000/svg" xmlns:xlink="http://www.w3.org/1999/xlink" id="Zoomcar" viewBox="0 0 400 286">
  <defs>
    <style>.cls-1{fill:#fff;}.cls-2{mask:url(#mask);}.cls-3{fill:#6dbe45;}.cls-4{fill:#309046;}.cls-5{mask:url(#mask-2-2);}.cls-6{fill:#6cb845;}.cls-7{mask:url(#mask-3);}.cls-8{fill:#424143;}.cls-9{mask:url(#mask-4-2);}</style>
    <mask id="mask" x="47.41" y="108.8" width="44.87" height="7.04" maskUnits="userSpaceOnUse">
      <g id="mask-2">
        <polygon id="path-1" class="cls-1" points="47.41 115.85 47.41 108.81 92.28 108.81 92.28 115.85 47.41 115.85"></polygon>
      </g>
    </mask>
    <mask id="mask-2-2" x="54.07" y="108.57" width="58.5" height="44.62" maskUnits="userSpaceOnUse">
      <g id="mask-4">
        <polygon id="path-3" class="cls-1" points="54.07 108.57 112.57 108.57 112.57 153.19 54.07 153.19 54.07 108.57"></polygon>
      </g>
    </mask>
    <mask id="mask-3" x="62.43" y="154.46" width="50.19" height="19" maskUnits="userSpaceOnUse">
      <g id="mask-6">
        <polygon id="path-5" class="cls-1" points="62.43 173.46 112.62 173.46 112.62 154.46 62.43 154.46 62.43 173.46"></polygon>
      </g>
    </mask>
    <mask id="mask-4-2" x="334.36" y="119.44" width="17.05" height="25.49" maskUnits="userSpaceOnUse">
      <g id="mask-8">
        <polygon id="path-7" class="cls-1" points="351.41 119.44 351.41 144.93 334.36 144.93 334.36 119.44 351.41 119.44"></polygon>
      </g>
    </mask>
  </defs>
  <title>Artboard 1</title>
  <g id="Droid-mix">
    <g id="color-logo">
      <g id="Group-3">
        <g class="cls-2">
          <path id="Fill-1" class="cls-3" d="M47.41,115.85H83a4.94,4.94,0,0,0,3.52-1.45l5.71-5.59h-36a9.94,9.94,0,0,0-8.88,7"></path>
        </g>
      </g>
      <path id="Fill-4" class="cls-3" d="M52.55,128.49H70.31A5,5,0,0,0,73.83,127l5.71-5.6H61.43a9.93,9.93,0,0,0-8.87,7"></path>
      <path id="Fill-6" class="cls-4" d="M80.1,154.46,63.86,170.57A9.54,9.54,0,1,1,57,154.46H80.1"></path>
      <g id="Group-10">
        <g class="cls-5">
          <path id="Fill-8" class="cls-6" d="M103,108.57a9.63,9.63,0,0,0-7.07,3.1L54.07,153.19A11.14,11.14,0,0,1,57,152.8H81.54l28.22-28a9.39,9.39,0,0,0,2.8-6.72,9.55,9.55,0,0,0-9.58-9.5"></path>
        </g>
      </g>
      <g id="Group-13">
        <g class="cls-7">
          <path id="Fill-11" class="cls-3" d="M81.12,155.47,64.88,171.58a10,10,0,0,1-2.45,1.88h50.19a21.06,21.06,0,0,0-21.11-19H82.14Z"></path>
        </g>
      </g>
      <path id="Fill-14" class="cls-8" d="M178.9,132.54a6.63,6.63,0,1,0,6.61-6.83,6.5,6.5,0,0,0-6.61,6.83m20.12,0c0,7.47-5.74,13.05-13.5,13.05s-13.46-5.58-13.46-13.05,5.71-13.05,13.46-13.05,13.5,5.58,13.5,13.05"></path>
      <path id="Fill-16" class="cls-8" d="M208.56,132.54a6.63,6.63,0,1,0,6.61-6.83,6.5,6.5,0,0,0-6.61,6.83m20.11,0c0,7.47-5.73,13.05-13.5,13.05s-13.45-5.58-13.45-13.05,5.71-13.05,13.45-13.05,13.5,5.58,13.5,13.05"></path>
      <path id="Fill-18" class="cls-8" d="M273.3,129.16v15.79h-4.08a2.6,2.6,0,0,1-2.61-2.59V131.31c0-3.59-1.83-5.55-4.86-5.55s-5.28,1.87-5.28,5.6v13.59h-4.11a2.6,2.6,0,0,1-2.61-2.59V131.31c0-3.59-1.8-5.55-4.86-5.55-2.88,0-5.28,1.87-5.28,5.6v13.59h-4.11a2.6,2.6,0,0,1-2.61-2.59V120.15h3.93a2.6,2.6,0,0,1,2.61,2.59v.33a8.38,8.38,0,0,1,7.33-3.58,9.45,9.45,0,0,1,8.23,4.25c1.93-3.15,5.2-4.25,8.47-4.25,5.86,0,9.83,3.91,9.83,9.68"></path>
      <path id="Fill-20" class="cls-8" d="M300.62,124.17l-4.84,4a6.91,6.91,0,0,0-5.32-2.48c-3.47,0-6.25,2.71-6.25,6.83s2.75,6.84,6.22,6.84a7.29,7.29,0,0,0,5.43-2.51l4.79,4.07a12.29,12.29,0,0,1-10,4.66c-8,0-13.28-5.53-13.28-13.06s5.32-13.05,13.28-13.05a12.19,12.19,0,0,1,10,4.68"></path>
      <path id="Fill-22" class="cls-8" d="M309.05,132.54c0,3.79,2.5,6.83,6.43,6.83s6.43-2.92,6.43-6.83-2.6-6.83-6.43-6.83-6.43,3-6.43,6.83Zm19.21,12.41h-4a2.6,2.6,0,0,1-2.61-2.59v-.14a9.18,9.18,0,0,1-7.46,3.37c-6.87,0-12.06-5.6-12.06-13.05s5.19-13.05,12.06-13.05a9.15,9.15,0,0,1,7.46,3.4v-2.74h6.56Z"></path>
      <g id="Group-26">
        <g class="cls-9">
          <path id="Fill-24" class="cls-8" d="M351.41,120l-1,6.64a10.88,10.88,0,0,0-4.07-.8c-3.12,0-5.25,1.9-5.25,5.59v13.53H337a2.6,2.6,0,0,1-2.61-2.6V120.1h3.91a2.6,2.6,0,0,1,2.61,2.6v.12c1.57-2.34,4-3.38,7-3.38a10.2,10.2,0,0,1,3.5.54"></path>
        </g>
      </g>
      <path id="Fill-27" class="cls-8" d="M169.84,109.11H148.27a6.59,6.59,0,0,0-6.61,6.58h18.65L140,141.46a2.16,2.16,0,0,0,1.7,3.49h28.19a6.59,6.59,0,0,0-6.61-6.58H151.16l20.38-25.79a2.14,2.14,0,0,0-1.69-3.47"></path>
      <path id="Fill-29" class="cls-8" d="M158.64,168.46c-.32-1-.67-2-1.08-3.1s-.84-2.21-1.29-3.32-.93-2.18-1.41-3.23-1-2-1.48-2.89l-3,12.53h-3.08l4.13-17.16h2.52c.47.75.95,1.59,1.46,2.55s1,2,1.47,3,.94,2.1,1.39,3.16.84,2.05,1.17,3l2.77-11.72h3.11l-4.13,17.16Z"></path>
      <path id="Fill-31" class="cls-8" d="M172.88,157.64a3.47,3.47,0,0,0-1.42.29,4.06,4.06,0,0,0-1.19.82,5.34,5.34,0,0,0-.91,1.22,5.51,5.51,0,0,0-.56,1.53,12.12,12.12,0,0,0,4.34-.72,2,2,0,0,0,1.36-1.85,1.28,1.28,0,0,0-.36-.89,1.63,1.63,0,0,0-1.26-.4m-7.24,6.14a9.74,9.74,0,0,1,.54-3.2,8.63,8.63,0,0,1,1.54-2.75,7.69,7.69,0,0,1,2.43-1.92,7,7,0,0,1,3.18-.72,4.15,4.15,0,0,1,2.94,1,3.22,3.22,0,0,1,1,2.48,3.92,3.92,0,0,1-.77,2.53,5.14,5.14,0,0,1-2,1.51,10,10,0,0,1-2.78.75q-1.56.19-3.15.24a.22.22,0,0,0,0,.1V164c0,1.5.95,2.25,2.86,2.25a8.86,8.86,0,0,0,3.39-.7l.25,2.43a10.55,10.55,0,0,1-1.69.54,10.34,10.34,0,0,1-2.49.27,6.56,6.56,0,0,1-2.39-.39,4.38,4.38,0,0,1-1.63-1.09,4.32,4.32,0,0,1-.93-1.6,6.13,6.13,0,0,1-.3-1.95"></path>
      <path id="Fill-33" class="cls-8" d="M181.13,168.46c-.42-1.69-.8-3.64-1.14-5.85a65.3,65.3,0,0,1-.66-7.1h3.09c0,.73,0,1.51.08,2.35s.1,1.69.17,2.54.15,1.67.24,2.46.2,1.51.32,2.16c.43-.56.9-1.24,1.39-2s1-1.61,1.45-2.48.89-1.73,1.27-2.61.69-1.67.92-2.4h3.14a30.22,30.22,0,0,1-1.5,3.52q-.89,1.81-1.94,3.51c-.7,1.14-1.42,2.22-2.16,3.25s-1.44,1.91-2.11,2.67Z"></path>
      <path id="Fill-35" class="cls-8" d="M198.62,157.64a3.47,3.47,0,0,0-1.42.29,4.06,4.06,0,0,0-1.19.82,5.34,5.34,0,0,0-.91,1.22,5.51,5.51,0,0,0-.56,1.53,12.12,12.12,0,0,0,4.34-.72,2,2,0,0,0,1.36-1.85,1.28,1.28,0,0,0-.36-.89,1.63,1.63,0,0,0-1.26-.4m-7.24,6.14a9.74,9.74,0,0,1,.54-3.2,8.56,8.56,0,0,1,1.54-2.75,7.69,7.69,0,0,1,2.43-1.92,7,7,0,0,1,3.18-.72,4.15,4.15,0,0,1,2.94,1,3.23,3.23,0,0,1,1,2.48,3.92,3.92,0,0,1-.77,2.53,5.14,5.14,0,0,1-2,1.51,10,10,0,0,1-2.78.75q-1.56.19-3.15.24a.22.22,0,0,0,0,.1V164c0,1.5.95,2.25,2.86,2.25a8.86,8.86,0,0,0,3.39-.7l.25,2.43a10.49,10.49,0,0,1-1.69.54,10.28,10.28,0,0,1-2.49.27,6.52,6.52,0,0,1-2.39-.39,4.38,4.38,0,0,1-1.63-1.09,4.32,4.32,0,0,1-.93-1.6,6.13,6.13,0,0,1-.3-1.95"></path>
      <path id="Fill-37" class="cls-8" d="M213.43,158.16a6.78,6.78,0,0,0-1.07-.27,8,8,0,0,0-1.35-.1,7,7,0,0,0-.9.07,4.57,4.57,0,0,0-.8.16l-2.5,10.45h-3l3-12.36a21.24,21.24,0,0,1,2.26-.61,12.64,12.64,0,0,1,2.64-.26c.2,0,.42,0,.67,0l.74.08.67.12a3.65,3.65,0,0,1,.53.17Z"></path>
      <path id="Fill-39" class="cls-8" d="M224.15,166.18a7.58,7.58,0,0,0,1.33-.12,4,4,0,0,0,1.19-.42,2.38,2.38,0,0,0,.86-.8,2.34,2.34,0,0,0,.33-1.28,1.84,1.84,0,0,0-.25-1,2.7,2.7,0,0,0-.67-.73,6.81,6.81,0,0,0-1-.6l-1.13-.61a9.65,9.65,0,0,1-1.23-.73,5.38,5.38,0,0,1-1-.93,4,4,0,0,1-.71-1.21,4.62,4.62,0,0,1-.26-1.64A5,5,0,0,1,222,154a4.49,4.49,0,0,1,1.29-1.65,6.41,6.41,0,0,1,2.11-1.09,9.91,9.91,0,0,1,2.93-.39,8.19,8.19,0,0,1,1.48.12,11.58,11.58,0,0,1,1.33.31,8.13,8.13,0,0,1,1.09.41,5.18,5.18,0,0,1,.75.42l-1.37,2.38a4.49,4.49,0,0,0-1.46-.71,6.69,6.69,0,0,0-2.05-.3,5.6,5.6,0,0,0-1.28.14,3.39,3.39,0,0,0-1.07.42,2.09,2.09,0,0,0-.72.75,2.37,2.37,0,0,0-.08,2,2.07,2.07,0,0,0,.52.65,4.17,4.17,0,0,0,.79.52l1,.53c.51.29,1,.56,1.46.84a6.32,6.32,0,0,1,1.21,1,4.27,4.27,0,0,1,.83,1.25,4.18,4.18,0,0,1,.31,1.7,5.32,5.32,0,0,1-.52,2.43,4.67,4.67,0,0,1-1.47,1.72,6.9,6.9,0,0,1-2.24,1,11.1,11.1,0,0,1-2.84.35,11,11,0,0,1-1.88-.15,10.66,10.66,0,0,1-1.53-.37,8.1,8.1,0,0,1-1.16-.47,6.56,6.56,0,0,1-.76-.44l1.39-2.46a6.37,6.37,0,0,0,.66.4,6.53,6.53,0,0,0,.93.41,8.78,8.78,0,0,0,1.14.31,7.07,7.07,0,0,0,1.32.12"></path>
      <path id="Fill-41" class="cls-8" d="M236.35,152.09l3.13-.49-1,3.91h4.27l-.6,2.48h-4.27l-1.24,5.13c-.08.36-.13.67-.17.91a4.77,4.77,0,0,0,0,.65,2.73,2.73,0,0,0,.07.58,1,1,0,0,0,.25.49,1.36,1.36,0,0,0,.55.35,3,3,0,0,0,1,.14,4.92,4.92,0,0,0,1.29-.17,9,9,0,0,0,1.09-.37l.23,2.4a9.89,9.89,0,0,1-1.45.47,8.29,8.29,0,0,1-2,.22,4.21,4.21,0,0,1-3.06-.92,3.46,3.46,0,0,1-.92-2.54,9,9,0,0,1,.09-1.23,12.94,12.94,0,0,1,.26-1.35Z"></path>
      <path id="Fill-43" class="cls-8" d="M250.36,157.71a2.83,2.83,0,0,0-1.73.56,4.69,4.69,0,0,0-1.27,1.42,7.49,7.49,0,0,0-.78,1.89,7.73,7.73,0,0,0-.28,2,3.48,3.48,0,0,0,.48,2,1.83,1.83,0,0,0,1.66.72,2.83,2.83,0,0,0,1.73-.55,4.74,4.74,0,0,0,1.27-1.41,7.46,7.46,0,0,0,.78-1.89,7.78,7.78,0,0,0,.27-2,3.57,3.57,0,0,0-.47-2,1.84,1.84,0,0,0-1.67-.73m-2.29,11.1a4.51,4.51,0,0,1-3.53-1.36,5.18,5.18,0,0,1-1.22-3.59,10.54,10.54,0,0,1,.45-3,9,9,0,0,1,1.37-2.8,7.54,7.54,0,0,1,2.32-2.08,6.35,6.35,0,0,1,3.28-.82,4.52,4.52,0,0,1,3.53,1.35,5.13,5.13,0,0,1,1.22,3.58,11.08,11.08,0,0,1-.43,3,9,9,0,0,1-1.34,2.79,7.35,7.35,0,0,1-2.31,2.08,6.54,6.54,0,0,1-3.33.82"></path>
      <path id="Fill-45" class="cls-8" d="M260.3,166.13a4.12,4.12,0,0,0,.52.07h.55a4.92,4.92,0,0,0,3.79-1.7,5.56,5.56,0,0,0,1-1.83,6.85,6.85,0,0,0,.36-2.24,4.06,4.06,0,0,0-.12-1,2.35,2.35,0,0,0-.41-.86,2,2,0,0,0-.77-.6,3,3,0,0,0-1.23-.22,6.83,6.83,0,0,0-.94.06,6.41,6.41,0,0,0-.79.16Zm9.27-6a9.6,9.6,0,0,1-.56,3.3,7.84,7.84,0,0,1-1.64,2.71,7.93,7.93,0,0,1-2.64,1.85,8.87,8.87,0,0,1-3.57.68,6.87,6.87,0,0,1-.71,0l-.71-.09-1.1,4.46h-3l4.1-17a12.81,12.81,0,0,1,2.28-.6,14.41,14.41,0,0,1,2.53-.22,6,6,0,0,1,2.25.39,4.26,4.26,0,0,1,1.57,1.05,4.31,4.31,0,0,1,.9,1.57,6.13,6.13,0,0,1,.3,1.94Z"></path>
      <polygon id="Fill-47" class="cls-8" points="288.19 165.83 287.56 168.46 276.79 168.46 280.92 151.3 284.06 151.3 280.56 165.83 288.19 165.83"></polygon>
      <path id="Fill-49" class="cls-8" d="M295.23,153.55a1.78,1.78,0,0,1-1.17-.4,1.42,1.42,0,0,1-.5-1.19,2,2,0,0,1,.63-1.51,2.08,2.08,0,0,1,1.46-.6,1.86,1.86,0,0,1,1.18.41,1.45,1.45,0,0,1,.51,1.2,1.91,1.91,0,0,1-.65,1.49,2.14,2.14,0,0,1-1.47.58ZM293,168.46h-3l3.14-13h3Z"></path>
      <path id="Fill-51" class="cls-8" d="M299.82,168.46c-.42-1.69-.8-3.64-1.14-5.85a64.25,64.25,0,0,1-.67-7.1h3.09c0,.73,0,1.51.08,2.35s.1,1.69.17,2.54.15,1.67.24,2.46.2,1.51.32,2.16c.43-.56.9-1.24,1.4-2s1-1.61,1.44-2.48.89-1.73,1.27-2.61.69-1.67.92-2.4h3.14a30.9,30.9,0,0,1-1.5,3.52q-.9,1.81-1.94,3.51c-.7,1.14-1.42,2.22-2.16,3.25s-1.44,1.91-2.11,2.67Z"></path>
      <path id="Fill-53" class="cls-8" d="M314.69,153.55a1.78,1.78,0,0,1-1.17-.4A1.42,1.42,0,0,1,313,152a2,2,0,0,1,.63-1.51,2.07,2.07,0,0,1,1.46-.6,1.85,1.85,0,0,1,1.18.41,1.44,1.44,0,0,1,.51,1.2,1.91,1.91,0,0,1-.65,1.49,2.15,2.15,0,0,1-1.47.58Zm-2.24,14.91h-3l3.14-13h3Z"></path>
      <path id="Fill-55" class="cls-8" d="M319.2,156.05c.66-.2,1.42-.39,2.28-.56a14.07,14.07,0,0,1,2.8-.26,4.5,4.5,0,0,1,3.36,1.11,4.16,4.16,0,0,1,1.07,3,8.06,8.06,0,0,1-.08,1.11c-.06.39-.13.79-.22,1.2l-1.64,6.81h-3l1.54-6.49c.08-.36.17-.73.25-1.11a6.22,6.22,0,0,0,.15-1.09,2.23,2.23,0,0,0-.41-1.43,2,2,0,0,0-1.71-.57,6.86,6.86,0,0,0-1.84.22l-2.49,10.48h-3Z"></path>
      <path id="Fill-57" class="cls-8" d="M336.07,165.34a4.16,4.16,0,0,0,1.38-.25,4.08,4.08,0,0,0,1.18-.62l1.61-6.61a5.31,5.31,0,0,0-1.12-.12,5,5,0,0,0-4.73,3.23,5.58,5.58,0,0,0-.37,2,2.79,2.79,0,0,0,.47,1.71,1.89,1.89,0,0,0,1.59.62m-2.18,5.25a4,4,0,0,0,2.78-.85,4.2,4.2,0,0,0,1.25-2.3l.07-.35a7.29,7.29,0,0,1-1.19.46,5.06,5.06,0,0,1-1.47.21,4.16,4.16,0,0,1-3.25-1.18,4.5,4.5,0,0,1-1.06-3.13,8.63,8.63,0,0,1,.62-3.3,7.82,7.82,0,0,1,1.75-2.61,8.11,8.11,0,0,1,2.73-1.72,9.64,9.64,0,0,1,3.53-.62,10.67,10.67,0,0,1,2,.21,6.81,6.81,0,0,1,1.95.68l-2.63,11a13.19,13.19,0,0,1-.88,2.59,5.7,5.7,0,0,1-1.41,1.88,5.86,5.86,0,0,1-2.16,1.15,10.53,10.53,0,0,1-3.1.4,9.28,9.28,0,0,1-2.38-.28,9,9,0,0,1-1.86-.71l1.07-2.43a6.74,6.74,0,0,0,1.56.64,7.5,7.5,0,0,0,2,.25"></path>
    </g>
  </g>
</svg>
